<?xml version="1.0" encoding="UTF-8"?>
<svg id="Layer_1" xmlns="http://www.w3.org/2000/svg" version="1.1" viewBox="0 0 504.89 193.78">
  <!-- Generator: Adobe Illustrator 29.8.3, SVG Export Plug-In . SVG Version: 2.1.1 Build 3)  -->
  <defs>
    <style>
      .st0 {
        font-family: DelmonDelicate, 'Delmon Delicate';
        font-size: 51.77px;
      }

      .st1 {
        font-size: 74.19px;
      }

      .st1, .st2 {
        font-family: Denmark, Denmark;
      }

      .st3 {
        letter-spacing: -.05em;
      }

      .st3, .st4, .st5, .st6, .st7 {
        fill: #636569;
      }

      .st4 {
        letter-spacing: 0em;
      }

      .st8, .st9 {
        fill: #5887da;
      }

      .st5 {
        font-size: 24.67px;
        letter-spacing: 0em;
      }

      .st5, .st6 {
        font-family: Roboto-Regular, Roboto;
      }

      .st6 {
        font-size: 20.21px;
        letter-spacing: .01em;
      }

      .st2 {
        font-size: 60.79px;
      }

      .st9 {
        letter-spacing: -.05em;
      }

      .st10 {
        fill: #383938;
        font-family: FZLTDHK--GBK1-0, FZLanTingHei-EB-GBK;
        font-size: 24.55px;
        letter-spacing: .37em;
      }
    </style>
  </defs>
  <g>
    <path class="st7" d="M308.17,761.69v-33.63c.01-.61-.16-1.2-.46-1.71-.29-.51-.71-.94-1.24-1.25l-27.1-15.64-31.14-17.99c-.53-.3-1.12-.45-1.7-.45,0,0-.01,0-.02,0-.58,0-1.16.15-1.68.45l-31.18,18.02-27.06,15.61c-.53.3-.95.74-1.24,1.25,0,0-.01.01-.02.02-.04.07-.06.15-.09.23-.09.19-.18.38-.24.58-.03.1-.02.21-.04.31-.03.18-.07.37-.08.56h0s0,.01,0,.01v33.63s0,33.63,0,33.63c0,.61.17,1.2.47,1.71,0,0,0,.01,0,.02.29.5.71.93,1.23,1.23l56.39,32.56,1.85,1.07c.52.3,1.1.45,1.68.45,0,0,.01,0,.02,0s.01,0,.02,0c.58,0,1.16-.15,1.68-.45l31.18-18.02,27.06-15.61c.53-.3.95-.74,1.24-1.25.3-.51.47-1.09.47-1.71v-33.63ZM301.43,793.39l-26.4,15.25-25.15,14.51v-122.93l25.11,14.49,26.44,15.28v31.7s0,31.7,0,31.7ZM191.63,733.96l47.24,27.74-47.24,27.78v-27.78s0-27.74,0-27.74ZM243.15,700.25v56.15l-48.22-28.31,23.85-13.78,24.36-14.06ZM194.97,795.32l48.18-28.33v56.15l-25-14.42-23.18-13.39Z"/>
    <path class="st8" d="M246.55,832.35c-.58,0-1.16-.15-1.68-.45-1.04-.6-1.68-1.71-1.68-2.91v-134.58c0-1.2.64-2.31,1.68-2.91,1.04-.6,2.32-.6,3.37,0l58.27,33.66c1.04.6,1.68,1.7,1.68,2.9s-.63,2.31-1.66,2.91l-52.33,30.73,52.31,30.76c1.03.61,1.66,1.72,1.66,2.91,0,1.2-.65,2.3-1.68,2.9l-58.24,33.63c-.52.3-1.1.45-1.68.45ZM249.92,766.99v56.17l48.2-27.83-48.2-28.34ZM249.92,700.23v56.17l48.22-28.31-48.22-27.86Z"/>
    <text class="st0" transform="translate(325.48 756.68)"><tspan class="st9" x="0" y="0">BLU</tspan><tspan class="st3" x="89.27" y="0">LUMA</tspan></text>
    <text class="st10" transform="translate(327.7 808.06)"><tspan x="0" y="0">網頁與平面設計</tspan></text>
    <text class="st6" transform="translate(327.17 779.79)"><tspan x="0" y="0">WEB / GRAPHIC DESIGN</tspan></text>
  </g>
  <g>
    <text class="st2" transform="translate(321.51 548.61)"><tspan class="st8" x="0" y="0">Blu</tspan><tspan class="st7" x="94.17" y="0">luma</tspan></text>
    <path class="st7" d="M308.17,538.62v-33.63c.01-.61-.16-1.2-.46-1.71-.29-.51-.71-.94-1.24-1.25l-27.1-15.64-31.14-17.99c-.53-.3-1.12-.45-1.7-.45,0,0-.01,0-.02,0-.58,0-1.16.15-1.68.45l-31.18,18.02-27.06,15.61c-.53.3-.95.74-1.24,1.25,0,0-.01.01-.02.02-.04.07-.06.15-.09.23-.09.19-.18.38-.24.58-.03.1-.02.21-.04.31-.03.18-.07.37-.08.56h0s0,.01,0,.01v33.63s0,33.63,0,33.63c0,.61.17,1.2.47,1.71,0,0,0,.01,0,.02.29.5.71.93,1.23,1.23l56.39,32.56,1.85,1.07c.52.3,1.1.45,1.68.45,0,0,.01,0,.02,0s.01,0,.02,0c.58,0,1.16-.15,1.68-.45l31.18-18.02,27.06-15.61c.53-.3.95-.74,1.24-1.25.3-.51.47-1.09.47-1.71v-33.63ZM301.43,570.32l-26.4,15.25-25.15,14.51v-122.93l25.11,14.49,26.44,15.28v31.7s0,31.7,0,31.7ZM191.63,510.89l47.24,27.74-47.24,27.78v-27.78s0-27.74,0-27.74ZM243.15,477.18v56.15l-48.22-28.31,23.85-13.78,24.36-14.06ZM194.97,572.25l48.18-28.33v56.15l-25-14.42-23.18-13.39Z"/>
    <path class="st8" d="M246.55,609.28c-.58,0-1.16-.15-1.68-.45-1.04-.6-1.68-1.71-1.68-2.91v-134.58c0-1.2.64-2.31,1.68-2.91,1.04-.6,2.32-.6,3.37,0l58.27,33.66c1.04.6,1.68,1.7,1.68,2.9s-.63,2.31-1.66,2.91l-52.33,30.73,52.31,30.76c1.03.61,1.66,1.72,1.66,2.91,0,1.2-.65,2.3-1.68,2.9l-58.24,33.63c-.52.3-1.1.45-1.68.45ZM249.92,543.92v56.17l48.2-27.83-48.2-28.34ZM249.92,477.16v56.17l48.22-28.31-48.22-27.86Z"/>
    <text class="st6" transform="translate(323.61 572)"><tspan x="0" y="0">WEB / GRAPHIC DESIGN</tspan></text>
  </g>
  <g>
    <text class="st1" transform="translate(180.98 107.75)"><tspan class="st8" x="0" y="0">Blu</tspan><tspan class="st4" x="114.92" y="0">luma</tspan></text>
    <path class="st7" d="M164.7,95.56v-41.03c.01-.75-.19-1.46-.56-2.08-.36-.62-.87-1.15-1.51-1.52l-33.07-19.08-38-21.95c-.64-.37-1.36-.55-2.08-.55,0,0-.02,0-.02,0-.71,0-1.42.18-2.06.55l-38.05,21.98-33.02,19.05c-.64.37-1.16.9-1.51,1.52,0,0-.01.02-.02.03-.05.09-.07.19-.11.27-.11.23-.23.46-.29.71-.03.12-.03.26-.05.38-.04.22-.09.45-.09.68h0s0,.02,0,.02v41.03s0,41.03,0,41.03c0,.75.21,1.46.57,2.08,0,0,0,.01,0,.02.35.61.87,1.13,1.5,1.5l68.82,39.73,2.26,1.3c.64.37,1.35.55,2.05.55,0,0,.02,0,.03,0s.02,0,.03,0c.71,0,1.42-.18,2.05-.55l38.05-21.98,33.02-19.05c.64-.37,1.16-.9,1.51-1.52.36-.62.57-1.34.57-2.08v-41.03ZM156.47,134.24l-32.22,18.61-30.7,17.71V20.55l30.65,17.68,32.27,18.64v38.68s0,38.68,0,38.68ZM22.48,61.71l57.65,33.85-57.65,33.9v-33.9s0-33.85,0-33.85ZM85.34,20.58v68.52L26.5,54.55l29.11-16.82,29.73-17.15ZM26.55,136.6l58.79-34.58v68.52l-30.5-17.6-28.29-16.34Z"/>
    <path class="st8" d="M89.5,181.78c-.71,0-1.42-.18-2.05-.55-1.27-.73-2.05-2.09-2.05-3.56V13.44c0-1.47.78-2.82,2.05-3.56,1.27-.73,2.83-.73,4.11,0l71.1,41.08c1.27.73,2.05,2.08,2.05,3.54s-.77,2.81-2.03,3.56l-63.86,37.5,63.83,37.54c1.26.74,2.03,2.09,2.02,3.56,0,1.46-.79,2.81-2.05,3.54l-71.08,41.04c-.63.37-1.34.55-2.05.55ZM93.61,102.02v68.55l58.81-33.96-58.81-34.59ZM93.61,20.56v68.55l58.84-34.55-58.84-33.99Z"/>
    <text class="st5" transform="translate(183.54 136.29)"><tspan x="0" y="0">WEB / GRAPHIC DESIGN</tspan></text>
  </g>
</svg>